<svg width="22" height="22" viewBox="0 0 22 22" fill="none" xmlns="http://www.w3.org/2000/svg">
<path fill-rule="evenodd" clip-rule="evenodd" d="M10.9999 0.939484C11.5522 0.939484 11.9999 1.3872 11.9999 1.93948V2.01185C11.9999 2.56413 11.5522 3.01185 10.9999 3.01185C10.4476 3.01185 9.99992 2.56413 9.99992 2.01185V1.93948C9.99992 1.3872 10.4476 0.939484 10.9999 0.939484ZM3.8341 3.81948C4.22462 3.42896 4.85779 3.42896 5.24831 3.81948L5.36591 3.93708C5.75643 4.3276 5.75643 4.96076 5.36591 5.35129C4.97538 5.74181 4.34222 5.74181 3.95169 5.35129L3.8341 5.23369C3.44357 4.84317 3.44357 4.21 3.8341 3.81948ZM18.1657 3.81948C18.5563 4.21001 18.5563 4.84318 18.1657 5.2337L18.0481 5.35129C17.6576 5.74181 17.0244 5.74181 16.6339 5.35128C16.2434 4.96076 16.2434 4.32759 16.6339 3.93707L16.7515 3.81948C17.1421 3.42895 17.7752 3.42896 18.1657 3.81948ZM0.954102 10.9853C0.954102 10.433 1.40182 9.9853 1.9541 9.9853H2.02647C2.57875 9.9853 3.02647 10.433 3.02647 10.9853C3.02647 11.5376 2.57875 11.9853 2.02647 11.9853H1.9541C1.40182 11.9853 0.954102 11.5376 0.954102 10.9853ZM18.9734 10.9853C18.9734 10.433 19.4211 9.9853 19.9734 9.9853H20.0457C20.598 9.9853 21.0457 10.433 21.0457 10.9853C21.0457 11.5376 20.598 11.9853 20.0457 11.9853H19.9734C19.4211 11.9853 18.9734 11.5376 18.9734 10.9853ZM5.3659 16.6193C5.75643 17.0098 5.75643 17.643 5.36591 18.0335L5.24832 18.1511C4.85779 18.5416 4.22463 18.5416 3.8341 18.1511C3.44358 17.7606 3.44357 17.1274 3.83409 16.7369L3.95169 16.6193C4.34221 16.2288 4.97538 16.2288 5.3659 16.6193ZM16.6339 16.6193C17.0244 16.2288 17.6576 16.2288 18.0481 16.6193L18.1657 16.7369C18.5563 17.1274 18.5563 17.7606 18.1657 18.1511C17.7752 18.5416 17.142 18.5416 16.7515 18.1511L16.6339 18.0335C16.2434 17.643 16.2434 17.0098 16.6339 16.6193ZM10.9999 18.9587C11.5522 18.9587 11.9999 19.4065 11.9999 19.9587V20.0311C11.9999 20.5834 11.5522 21.0311 10.9999 21.0311C10.4476 21.0311 9.99992 20.5834 9.99992 20.0311V19.9587C9.99992 19.4065 10.4476 18.9587 10.9999 18.9587Z" fill="#5C5F61"/>
</svg>
